<?xml version="1.0" encoding="utf-8"?><svg viewBox="0 0 260 260" xmlns="http://www.w3.org/2000/svg" xmlns:xlink="http://www.w3.org/1999/xlink"><style>:root>svg{display:none}:root>svg:target{display:block}</style><svg viewBox="0 0 20 20" id="arrow" xmlns="http://www.w3.org/2000/svg"><path fill-rule="evenodd" clip-rule="evenodd" d="M3 10v1h11v3l4-3.5L14 7v3H3Z"/></svg><svg viewBox="0 0 20 20" id="bookmark" xmlns="http://www.w3.org/2000/svg"><path fill-rule="evenodd" clip-rule="evenodd" d="M5 1h10a2 2 0 0 1 2 2v16l-6.905-5L3 19V3a2 2 0 0 1 2-2Z"/></svg><svg viewBox="0 0 20 20" id="burger" xmlns="http://www.w3.org/2000/svg"><path fill-rule="evenodd" clip-rule="evenodd" d="M19 17H1v-2h18v2Zm-6-6H1V9h12v2ZM1 5V3h18v2H1Z"/></svg><svg viewBox="0 0 15 15" id="heart" xmlns="http://www.w3.org/2000/svg"><path fill-rule="evenodd" clip-rule="evenodd" d="M12.84 2.96c-.67-.748-1.56-1.16-2.505-1.16-.947 0-1.74.412-2.41 1.16l-.425.68-.425-.68c-.669-.748-1.463-1.16-2.41-1.16-.945 0-1.835.412-2.504 1.16C.78 4.506.78 7.02 2.16 8.564l4.949 4.757a.523.523 0 0 0 .393.179c.14 0 .28-.06.387-.18l4.95-4.756c1.38-1.544 1.38-4.058 0-5.604Z"/></svg><svg viewBox="0 0 184 40" id="logo" xmlns="http://www.w3.org/2000/svg"><path d="M11.831 6.04v3.45l-3.06.588V24.98c0 1.883.503 3.294 1.51 4.236 1.02.928 2.413 1.392 4.18 1.392 1.791 0 3.197-.464 4.218-1.392 1.02-.928 1.53-2.34 1.53-4.236V10.078l-3.041-.588V6.04h11.83v3.45l-3.06.588V24.98c0 3.203-1.06 5.674-3.178 7.412C20.654 34.131 17.887 35 14.46 35c-3.414 0-6.174-.87-8.28-2.608-2.092-1.738-3.139-4.209-3.139-7.412V10.078L0 9.49V6.04h11.831ZM30.53 31.157l2.746-.588V17.412l-3.041-.588v-3.451h8.378l.255 3.039c.706-1.085 1.576-1.928 2.61-2.53 1.033-.601 2.19-.902 3.472-.902 2.145 0 3.82.674 5.023 2.02 1.203 1.346 1.805 3.457 1.805 6.333v9.236l2.747.588v3.431H43.577v-3.431l2.452-.588v-9.216c0-1.425-.287-2.431-.863-3.02-.575-.601-1.445-.902-2.61-.902-.758 0-1.438.157-2.04.471-.602.3-1.105.732-1.51 1.294V30.57l2.315.588v3.431H30.529v-3.431ZM56.173 31.157l2.767-.588V17.412l-3.061-.588v-3.451h8.79v17.196l2.747.588v3.431H56.173v-3.431ZM64.67 8.294h-5.73V4h5.73v4.294ZM78.305 16.823l-2.001.373 2.805 9.49.373 2h.118l.412-2 2.766-9.47-2.04-.393v-3.45h9.633v3.45l-1.844.295-6.259 17.47h-5.474l-6.278-17.47-1.845-.294v-3.451h9.634v3.45ZM102.105 35c-3.061 0-5.507-.98-7.339-2.941-1.83-1.961-2.746-4.451-2.746-7.47v-.785c0-3.15.863-5.745 2.59-7.784 1.74-2.04 4.067-3.053 6.984-3.04 2.865 0 5.089.863 6.671 2.589 1.583 1.725 2.374 4.059 2.374 7v3.117H97.965l-.04.118c.105 1.399.57 2.549 1.393 3.45.838.903 1.969 1.354 3.395 1.354 1.269 0 2.321-.124 3.159-.373.837-.261 1.752-.666 2.746-1.215l1.55 3.529c-.876.693-2.014 1.275-3.413 1.745-1.387.47-2.937.706-4.65.706Zm-.511-17.608c-1.059 0-1.896.405-2.511 1.216-.615.81-.994 1.876-1.138 3.196l.059.098h7.024v-.51c0-1.215-.288-2.183-.863-2.902-.563-.732-1.42-1.098-2.571-1.098ZM113.798 31.157l2.747-.588V17.412l-3.041-.588v-3.451h8.378l.255 3.098c.497-1.098 1.138-1.955 1.923-2.569.785-.614 1.694-.922 2.727-.922.301 0 .615.027.942.079.34.039.621.091.843.157l-.608 5.215-2.354-.058c-.837 0-1.531.163-2.08.49-.549.326-.968.79-1.256 1.392v10.314l2.747.588v3.431h-11.223v-3.431ZM147.604 20.667h-3.845l-.609-2.647c-.392-.314-.889-.576-1.491-.785a5.821 5.821 0 0 0-1.962-.313c-1.007 0-1.805.228-2.394.686-.588.444-.882 1.006-.882 1.686 0 .64.281 1.177.843 1.608.563.418 1.688.79 3.375 1.118 2.629.523 4.578 1.294 5.847 2.313 1.269 1.007 1.903 2.399 1.903 4.177 0 1.908-.824 3.47-2.472 4.686C144.282 34.4 142.124 35 139.442 35c-1.635 0-3.139-.235-4.513-.706a11.674 11.674 0 0 1-3.629-2.059l-.059-4.764h4.002l.785 2.764c.34.288.805.504 1.393.647.589.131 1.204.196 1.845.196 1.164 0 2.047-.209 2.648-.627.615-.418.922-.987.922-1.706 0-.627-.307-1.17-.922-1.627-.615-.458-1.746-.863-3.394-1.216-2.498-.51-4.388-1.262-5.67-2.255-1.269-1.006-1.904-2.372-1.904-4.098 0-1.778.733-3.307 2.198-4.588 1.465-1.294 3.551-1.941 6.259-1.941 1.648 0 3.205.222 4.67.666 1.478.445 2.635 1.013 3.472 1.706l.059 5.275ZM164.478 34.588a10.574 10.574 0 0 1-.412-1.078 8.87 8.87 0 0 1-.275-1.137 7.847 7.847 0 0 1-2.492 1.902c-.968.483-2.08.725-3.335.725-2.08 0-3.735-.562-4.964-1.686-1.217-1.138-1.825-2.68-1.825-4.628 0-1.987.798-3.523 2.394-4.608 1.596-1.084 3.937-1.627 7.024-1.627h2.923v-2.079c0-1.02-.294-1.81-.883-2.372-.588-.562-1.458-.843-2.609-.843-.654 0-1.236.078-1.746.235-.51.144-.922.32-1.236.53l-.373 2.274h-4.317l.02-4.706c1.046-.706 2.243-1.3 3.59-1.784 1.361-.484 2.839-.726 4.435-.726 2.629 0 4.761.647 6.396 1.942 1.648 1.28 2.472 3.11 2.472 5.49v9.686c.013.288.039.562.079.824l1.746.235v3.431h-6.612Zm-4.964-3.823c.863 0 1.648-.183 2.354-.55.707-.378 1.256-.849 1.648-1.411v-3.235h-2.923c-1.217 0-2.139.287-2.767.862-.627.563-.941 1.242-.941 2.04 0 .718.229 1.28.686 1.686.471.405 1.119.608 1.943.608ZM172.444 7.451V4h8.79v26.569l2.766.588v3.431h-11.262v-3.431l2.766-.588V8.039l-3.06-.588Z"/></svg><svg viewBox="0 0 260 260" id="oval" xmlns="http://www.w3.org/2000/svg"><path fill-rule="evenodd" clip-rule="evenodd" d="M130 260c71.797 0 130-58.203 130-130S201.797 0 130 0 0 58.203 0 130s58.203 130 130 130Z"/></svg><svg viewBox="0 0 20 20" id="picture" xmlns="http://www.w3.org/2000/svg"><path fill-rule="evenodd" clip-rule="evenodd" d="M3 6V4a1 1 0 0 1 1-1h14a1 1 0 0 1 1 1v10a1 1 0 0 1-1 1h-2v2a1 1 0 0 1-1 1H1a1 1 0 0 1-1-1V7a1 1 0 0 1 1-1h2Zm12 9H4a1 1 0 0 1-1-1V7H1v10h14v-2ZM4 4v10h14V4H4Zm14 10H4v-1l3-3 3 2 4-4 4 5v1ZM9.5 9a1.5 1.5 0 1 1 0-3 1.5 1.5 0 0 1 0 3Z"/></svg><svg viewBox="0 0 6 6" id="play-item" xmlns="http://www.w3.org/2000/svg"><path fill-rule="evenodd" clip-rule="evenodd" d="M1.2 5.369V.629c0-.182.153-.33.342-.33.066 0 .13.019.185.053l3.816 2.37a.324.324 0 0 1 0 .555l-3.816 2.37a.35.35 0 0 1-.473-.1.322.322 0 0 1-.054-.178Z"/></svg><svg viewBox="0 0 40 40" id="quote" xmlns="http://www.w3.org/2000/svg"><path fill-rule="evenodd" clip-rule="evenodd" d="M8.889 19.111V22H18v18H0V19.111C0 12.23 1.992 6.531 5.921 3.333 8.639 1.121 11.933 0 16 0v9.474c-2.208 0-7.111.883-7.111 9.637Zm22 0V22H40v18H22V19.111c0-6.882 1.77-12.58 5.699-15.778C30.416 1.121 33.933 0 38 0v9.474c-2.208 0-7.111.883-7.111 9.637Z" opacity=".75"/></svg><svg viewBox="0 0 15 15" id="review" xmlns="http://www.w3.org/2000/svg"><path fill-rule="evenodd" clip-rule="evenodd" d="M11.135 12v3L8.36 12H2.25a1.5 1.5 0 0 1-1.5-1.5V3a1.5 1.5 0 0 1 1.5-1.5h10.5a1.5 1.5 0 0 1 1.5 1.5v7.5a1.5 1.5 0 0 1-1.5 1.5h-1.615Z"/></svg><svg viewBox="0 0 20 20" id="search" xmlns="http://www.w3.org/2000/svg"><path fill-rule="evenodd" clip-rule="evenodd" d="m18.435 17.395-4.289-4.455a7.238 7.238 0 0 0 1.707-4.673C15.853 4.26 12.59 1 8.577 1 4.564 1 1.3 4.26 1.3 8.267c0 4.008 3.264 7.268 7.277 7.268a7.205 7.205 0 0 0 4.168-1.315l4.322 4.49c.181.187.424.29.684.29a.948.948 0 0 0 .684-1.605Zm-9.858-14.5a5.381 5.381 0 0 1 5.378 5.372 5.38 5.38 0 0 1-5.378 5.372 5.381 5.381 0 0 1-5.379-5.372 5.381 5.381 0 0 1 5.379-5.371Z"/></svg><svg viewBox="0 0 20 20" id="sun" xmlns="http://www.w3.org/2000/svg"><path fill-rule="evenodd" clip-rule="evenodd" d="M10 16.476c.415 0 .75.335.75.75v1.025c0 .415-.335.749-.75.749a.748.748 0 0 1-.75-.75v-1.024c0-.415.335-.75.75-.75Zm0-12.952a.748.748 0 0 1-.75-.75V1.75c0-.415.335-.749.75-.749s.75.334.75.75v1.024c0 .415-.335.75-.75.75Zm8.25 5.727c.416 0 .75.334.75.749s-.334.75-.75.75h-1.024a.748.748 0 0 1-.75-.75c0-.415.335-.75.75-.75h1.025Zm-15.476 0c.415 0 .75.334.75.749s-.335.75-.75.75H1.75A.748.748 0 0 1 1 10c0-.415.334-.75.75-.75h1.024ZM15.64 5.423a.75.75 0 1 1-1.062-1.062l.724-.723a.75.75 0 0 1 1.061 0 .75.75 0 0 1 0 1.061l-.723.724ZM4.36 14.577a.75.75 0 1 1 1.062 1.062l-.724.723a.75.75 0 0 1-1.061 0 .75.75 0 0 1 0-1.061l.723-.724Zm11.278 0 .723.724a.75.75 0 0 1 0 1.061.75.75 0 0 1-1.061 0l-.724-.723a.75.75 0 1 1 1.062-1.062ZM4.36 5.423l-.723-.724a.75.75 0 0 1 0-1.061.75.75 0 0 1 1.061 0l.724.723a.75.75 0 0 1 0 1.062.75.75 0 0 1-1.062 0ZM10 4.36A5.647 5.647 0 0 1 15.639 10 5.645 5.645 0 0 1 10 15.639 5.645 5.645 0 0 1 4.361 10 5.645 5.645 0 0 1 10 4.361Zm0 9.775A4.14 4.14 0 0 0 14.136 10 4.14 4.14 0 0 0 10 5.864 4.14 4.14 0 0 0 5.864 10 4.14 4.14 0 0 0 10 14.136Z"/></svg><svg viewBox="0 0 20 20" id="user" xmlns="http://www.w3.org/2000/svg"><path fill-rule="evenodd" clip-rule="evenodd" d="M18 16.632C16.367 18.21 13.7 19 10 19s-6.367-.79-8-2.368C2 13.348 3.906 10.983 6.706 10c.895.417 1.889 1 3.294 1s2.331-.607 3.294-1c2.764.996 4.706 3.375 4.706 6.632ZM10 9a4 4 0 1 1 0-8 4 4 0 0 1 0 8Z"/></svg></svg>